<svg width="127" height="40" viewBox="0 0 127 40" fill="none" xmlns="http://www.w3.org/2000/svg">
<g clip-path="url(#clip0_20_233)">
<rect width="127" height="40" rx="20" fill="#4F378B"/>
<path d="M26.708 19.1074V25H25.0605V17.6035H26.6123L26.708 19.1074ZM26.4414 21.0283L25.8809 21.0215C25.8809 20.5111 25.9447 20.0394 26.0723 19.6064C26.1999 19.1735 26.3867 18.7975 26.6328 18.4785C26.8789 18.1549 27.1842 17.9066 27.5488 17.7334C27.918 17.5557 28.3441 17.4668 28.8271 17.4668C29.1644 17.4668 29.472 17.5169 29.75 17.6172C30.0326 17.7129 30.2764 17.8656 30.4814 18.0752C30.6911 18.2848 30.8506 18.5537 30.96 18.8818C31.0739 19.21 31.1309 19.6064 31.1309 20.0713V25H29.4834V20.2148C29.4834 19.8548 29.4287 19.5723 29.3193 19.3672C29.2145 19.1621 29.0618 19.0163 28.8613 18.9297C28.6654 18.8385 28.4307 18.793 28.1572 18.793C27.8473 18.793 27.583 18.8522 27.3643 18.9707C27.1501 19.0892 26.9746 19.251 26.8379 19.4561C26.7012 19.6611 26.6009 19.8981 26.5371 20.167C26.4733 20.4359 26.4414 20.723 26.4414 21.0283ZM31.0283 20.5908L30.2559 20.7617C30.2559 20.3151 30.3174 19.8936 30.4404 19.4971C30.568 19.096 30.7526 18.7451 30.9941 18.4443C31.2402 18.139 31.5433 17.8997 31.9033 17.7266C32.2633 17.5534 32.6758 17.4668 33.1406 17.4668C33.5189 17.4668 33.8561 17.5192 34.1523 17.624C34.4531 17.7243 34.7083 17.8838 34.918 18.1025C35.1276 18.3213 35.2871 18.6061 35.3965 18.957C35.5059 19.3034 35.5605 19.7227 35.5605 20.2148V25H33.9062V20.208C33.9062 19.8343 33.8516 19.5449 33.7422 19.3398C33.6374 19.1348 33.487 18.9935 33.291 18.916C33.0951 18.834 32.8604 18.793 32.5869 18.793C32.3317 18.793 32.1061 18.8408 31.9102 18.9365C31.7188 19.0277 31.557 19.1576 31.4248 19.3262C31.2926 19.4902 31.1924 19.6794 31.124 19.8936C31.0602 20.1077 31.0283 20.3402 31.0283 20.5908ZM39.5023 24.1934L41.5121 17.6035H43.2758L40.309 26.1279C40.2406 26.3102 40.1518 26.5085 40.0424 26.7227C39.933 26.9368 39.7895 27.1396 39.6117 27.3311C39.4385 27.527 39.2221 27.6842 38.9623 27.8027C38.7025 27.9258 38.3881 27.9873 38.0189 27.9873C37.8731 27.9873 37.7318 27.9736 37.5951 27.9463C37.463 27.9235 37.3376 27.8984 37.2191 27.8711L37.2123 26.6133C37.2579 26.6178 37.3126 26.6224 37.3764 26.627C37.4447 26.6315 37.4994 26.6338 37.5404 26.6338C37.8139 26.6338 38.0417 26.5996 38.224 26.5312C38.4063 26.4674 38.5544 26.3626 38.6684 26.2168C38.7868 26.071 38.8871 25.875 38.9691 25.6289L39.5023 24.1934ZM38.3676 17.6035L40.1244 23.1406L40.4184 24.877L39.2768 25.1709L36.5902 17.6035H38.3676ZM50.927 23.8242C51.1958 23.8242 51.4374 23.7718 51.6516 23.667C51.8703 23.5576 52.0458 23.4072 52.1779 23.2158C52.3146 23.0244 52.3898 22.8034 52.4035 22.5527H53.9553C53.9462 23.0312 53.8049 23.4665 53.5314 23.8584C53.258 24.2503 52.8957 24.5625 52.4445 24.7949C51.9934 25.0228 51.4943 25.1367 50.9475 25.1367C50.3824 25.1367 49.8902 25.041 49.4709 24.8496C49.0516 24.6536 48.703 24.3848 48.425 24.043C48.147 23.7012 47.9374 23.307 47.7961 22.8604C47.6594 22.4137 47.591 21.9352 47.591 21.4248V21.1855C47.591 20.6751 47.6594 20.1966 47.7961 19.75C47.9374 19.2988 48.147 18.9023 48.425 18.5605C48.703 18.2188 49.0516 17.9521 49.4709 17.7607C49.8902 17.5648 50.3801 17.4668 50.9406 17.4668C51.5331 17.4668 52.0526 17.5853 52.4992 17.8223C52.9458 18.0547 53.2967 18.3805 53.552 18.7998C53.8117 19.2145 53.9462 19.6976 53.9553 20.249H52.4035C52.3898 19.9756 52.3215 19.7295 52.1984 19.5107C52.0799 19.2874 51.9113 19.1097 51.6926 18.9775C51.4784 18.8454 51.2209 18.7793 50.9201 18.7793C50.5874 18.7793 50.3117 18.8477 50.093 18.9844C49.8742 19.1165 49.7033 19.2988 49.5803 19.5312C49.4572 19.7591 49.3684 20.0166 49.3137 20.3037C49.2635 20.5863 49.2385 20.8802 49.2385 21.1855V21.4248C49.2385 21.7301 49.2635 22.0264 49.3137 22.3135C49.3638 22.6006 49.4504 22.8581 49.5734 23.0859C49.701 23.3092 49.8742 23.4893 50.093 23.626C50.3117 23.7581 50.5897 23.8242 50.927 23.8242ZM55.0055 21.3838V21.2266C55.0055 20.6934 55.0829 20.1989 55.2379 19.7432C55.3928 19.2829 55.6161 18.8841 55.9078 18.5469C56.204 18.2051 56.5641 17.9408 56.9879 17.7539C57.4163 17.5625 57.8993 17.4668 58.4371 17.4668C58.9794 17.4668 59.4625 17.5625 59.8863 17.7539C60.3147 17.9408 60.677 18.2051 60.9732 18.5469C61.2695 18.8841 61.4951 19.2829 61.65 19.7432C61.8049 20.1989 61.8824 20.6934 61.8824 21.2266V21.3838C61.8824 21.917 61.8049 22.4115 61.65 22.8672C61.4951 23.3229 61.2695 23.7217 60.9732 24.0635C60.677 24.4007 60.317 24.665 59.8932 24.8564C59.4693 25.0433 58.9885 25.1367 58.4508 25.1367C57.9085 25.1367 57.4231 25.0433 56.9947 24.8564C56.5709 24.665 56.2109 24.4007 55.9146 24.0635C55.6184 23.7217 55.3928 23.3229 55.2379 22.8672C55.0829 22.4115 55.0055 21.917 55.0055 21.3838ZM56.6529 21.2266V21.3838C56.6529 21.7165 56.6871 22.0309 56.7555 22.3271C56.8238 22.6234 56.9309 22.8831 57.0768 23.1064C57.2226 23.3298 57.4094 23.5052 57.6373 23.6328C57.8652 23.7604 58.1363 23.8242 58.4508 23.8242C58.7561 23.8242 59.0204 23.7604 59.2437 23.6328C59.4716 23.5052 59.6585 23.3298 59.8043 23.1064C59.9501 22.8831 60.0572 22.6234 60.1256 22.3271C60.1985 22.0309 60.235 21.7165 60.235 21.3838V21.2266C60.235 20.8984 60.1985 20.5885 60.1256 20.2969C60.0572 20.0007 59.9479 19.7386 59.7975 19.5107C59.6516 19.2829 59.4648 19.1051 59.2369 18.9775C59.0136 18.8454 58.747 18.7793 58.4371 18.7793C58.1272 18.7793 57.8583 18.8454 57.6305 18.9775C57.4072 19.1051 57.2226 19.2829 57.0768 19.5107C56.9309 19.7386 56.8238 20.0007 56.7555 20.2969C56.6871 20.5885 56.6529 20.8984 56.6529 21.2266ZM64.9971 19.1826V25H63.3496V17.6035H64.9014L64.9971 19.1826ZM64.7031 21.0283L64.1699 21.0215C64.1745 20.4974 64.2474 20.0166 64.3887 19.5791C64.5345 19.1416 64.735 18.7656 64.9902 18.4512C65.25 18.1367 65.5599 17.8952 65.9199 17.7266C66.2799 17.5534 66.681 17.4668 67.123 17.4668C67.4785 17.4668 67.7998 17.5169 68.0869 17.6172C68.3786 17.7129 68.627 17.8701 68.832 18.0889C69.0417 18.3076 69.2012 18.5924 69.3105 18.9434C69.4199 19.2897 69.4746 19.7158 69.4746 20.2217V25H67.8203V20.2148C67.8203 19.8594 67.7679 19.5791 67.6631 19.374C67.5628 19.1644 67.4147 19.0163 67.2188 18.9297C67.0273 18.8385 66.7881 18.793 66.501 18.793C66.2184 18.793 65.9655 18.8522 65.7422 18.9707C65.5189 19.0892 65.3298 19.251 65.1748 19.4561C65.0244 19.6611 64.9082 19.8981 64.8262 20.167C64.7441 20.4359 64.7031 20.723 64.7031 21.0283ZM74.2777 23.8242C74.5466 23.8242 74.7881 23.7718 75.0023 23.667C75.2211 23.5576 75.3965 23.4072 75.5287 23.2158C75.6654 23.0244 75.7406 22.8034 75.7543 22.5527H77.3061C77.2969 23.0312 77.1557 23.4665 76.8822 23.8584C76.6088 24.2503 76.2465 24.5625 75.7953 24.7949C75.3441 25.0228 74.8451 25.1367 74.2982 25.1367C73.7331 25.1367 73.2409 25.041 72.8217 24.8496C72.4024 24.6536 72.0538 24.3848 71.7758 24.043C71.4978 23.7012 71.2881 23.307 71.1469 22.8604C71.0102 22.4137 70.9418 21.9352 70.9418 21.4248V21.1855C70.9418 20.6751 71.0102 20.1966 71.1469 19.75C71.2881 19.2988 71.4978 18.9023 71.7758 18.5605C72.0538 18.2188 72.4024 17.9521 72.8217 17.7607C73.2409 17.5648 73.7309 17.4668 74.2914 17.4668C74.8839 17.4668 75.4034 17.5853 75.85 17.8223C76.2966 18.0547 76.6475 18.3805 76.9027 18.7998C77.1625 19.2145 77.2969 19.6976 77.3061 20.249H75.7543C75.7406 19.9756 75.6723 19.7295 75.5492 19.5107C75.4307 19.2874 75.2621 19.1097 75.0434 18.9775C74.8292 18.8454 74.5717 18.7793 74.2709 18.7793C73.9382 18.7793 73.6625 18.8477 73.4437 18.9844C73.225 19.1165 73.0541 19.2988 72.9311 19.5312C72.808 19.7591 72.7191 20.0166 72.6645 20.3037C72.6143 20.5863 72.5893 20.8802 72.5893 21.1855V21.4248C72.5893 21.7301 72.6143 22.0264 72.6645 22.3135C72.7146 22.6006 72.8012 22.8581 72.9242 23.0859C73.0518 23.3092 73.225 23.4893 73.4437 23.626C73.6625 23.7581 73.9405 23.8242 74.2777 23.8242ZM81.9314 25.1367C81.3846 25.1367 80.8901 25.0479 80.448 24.8701C80.0105 24.6878 79.6368 24.4349 79.327 24.1113C79.0216 23.7878 78.7869 23.4072 78.6229 22.9697C78.4588 22.5322 78.3768 22.0605 78.3768 21.5547V21.2812C78.3768 20.7025 78.4611 20.1784 78.6297 19.709C78.7983 19.2396 79.033 18.8385 79.3338 18.5059C79.6346 18.1686 79.99 17.9111 80.4002 17.7334C80.8104 17.5557 81.2547 17.4668 81.7332 17.4668C82.2618 17.4668 82.7244 17.5557 83.1209 17.7334C83.5174 17.9111 83.8455 18.1618 84.1053 18.4854C84.3696 18.8044 84.5656 19.1849 84.6932 19.627C84.8253 20.069 84.8914 20.5566 84.8914 21.0898V21.7939H79.1766V20.6113H83.2645V20.4814C83.2553 20.1852 83.1961 19.9072 83.0867 19.6475C82.9819 19.3877 82.8201 19.1781 82.6014 19.0186C82.3826 18.859 82.091 18.7793 81.7264 18.7793C81.4529 18.7793 81.2091 18.8385 80.9949 18.957C80.7853 19.071 80.6098 19.2373 80.4686 19.4561C80.3273 19.6748 80.2179 19.9391 80.1404 20.249C80.0675 20.5544 80.0311 20.8984 80.0311 21.2812V21.5547C80.0311 21.8783 80.0743 22.179 80.1609 22.457C80.2521 22.7305 80.3842 22.9697 80.5574 23.1748C80.7306 23.3799 80.9402 23.5417 81.1863 23.6602C81.4324 23.7741 81.7127 23.8311 82.0271 23.8311C82.4236 23.8311 82.7768 23.7513 83.0867 23.5918C83.3966 23.4323 83.6655 23.2067 83.8934 22.915L84.7615 23.7559C84.602 23.9883 84.3947 24.2116 84.1395 24.4258C83.8842 24.6354 83.5721 24.8063 83.2029 24.9385C82.8383 25.0706 82.4145 25.1367 81.9314 25.1367ZM87.9309 19.0117V25H86.2834V17.6035H87.8557L87.9309 19.0117ZM90.1936 17.5557L90.1799 19.0869C90.0796 19.0687 89.9702 19.055 89.8518 19.0459C89.7378 19.0368 89.6239 19.0322 89.51 19.0322C89.2274 19.0322 88.979 19.0732 88.7648 19.1553C88.5507 19.2327 88.3706 19.3467 88.2248 19.4971C88.0835 19.6429 87.9742 19.8206 87.8967 20.0303C87.8192 20.2399 87.7736 20.4746 87.76 20.7344L87.384 20.7617C87.384 20.2969 87.4296 19.8662 87.5207 19.4697C87.6118 19.0732 87.7486 18.7246 87.9309 18.4238C88.1177 18.123 88.3501 17.8883 88.6281 17.7197C88.9107 17.5511 89.2365 17.4668 89.6057 17.4668C89.7059 17.4668 89.813 17.4759 89.927 17.4941C90.0454 17.5124 90.1343 17.5329 90.1936 17.5557ZM95.0582 17.6035V18.8066H90.8883V17.6035H95.0582ZM92.0914 15.792H93.7389V22.9561C93.7389 23.1839 93.7708 23.3594 93.8346 23.4824C93.9029 23.6009 93.9964 23.6807 94.1148 23.7217C94.2333 23.7627 94.3723 23.7832 94.5318 23.7832C94.6458 23.7832 94.7551 23.7764 94.86 23.7627C94.9648 23.749 95.0491 23.7354 95.1129 23.7217L95.1197 24.9795C94.983 25.0205 94.8235 25.057 94.6412 25.0889C94.4635 25.1208 94.2584 25.1367 94.026 25.1367C93.6477 25.1367 93.3128 25.0706 93.0211 24.9385C92.7294 24.8018 92.5016 24.5807 92.3375 24.2754C92.1734 23.9701 92.0914 23.5645 92.0914 23.0586V15.792ZM100.579 22.9971C100.579 22.833 100.538 22.6849 100.456 22.5527C100.374 22.416 100.217 22.293 99.9844 22.1836C99.7565 22.0742 99.4193 21.974 98.9727 21.8828C98.5807 21.7962 98.2207 21.6937 97.8926 21.5752C97.569 21.4521 97.291 21.304 97.0586 21.1309C96.8262 20.9577 96.6462 20.7526 96.5186 20.5156C96.391 20.2786 96.3271 20.0052 96.3271 19.6953C96.3271 19.3945 96.3932 19.1097 96.5254 18.8408C96.6576 18.5719 96.8467 18.335 97.0928 18.1299C97.3389 17.9248 97.6374 17.763 97.9883 17.6445C98.3438 17.526 98.7402 17.4668 99.1777 17.4668C99.7975 17.4668 100.328 17.5716 100.771 17.7812C101.217 17.9863 101.559 18.2666 101.796 18.6221C102.033 18.973 102.151 19.3695 102.151 19.8115H100.504C100.504 19.6156 100.454 19.4333 100.354 19.2646C100.258 19.0915 100.112 18.9525 99.916 18.8477C99.7201 18.7383 99.474 18.6836 99.1777 18.6836C98.8952 18.6836 98.6605 18.7292 98.4736 18.8203C98.2913 18.9069 98.1546 19.0208 98.0635 19.1621C97.9769 19.3034 97.9336 19.4583 97.9336 19.627C97.9336 19.75 97.9564 19.8617 98.002 19.9619C98.0521 20.0576 98.1341 20.1465 98.248 20.2285C98.362 20.306 98.5169 20.3789 98.7129 20.4473C98.9134 20.5156 99.1641 20.5817 99.4648 20.6455C100.03 20.764 100.515 20.9167 100.921 21.1035C101.331 21.2858 101.646 21.5228 101.864 21.8145C102.083 22.1016 102.192 22.4661 102.192 22.9082C102.192 23.2363 102.122 23.5371 101.98 23.8105C101.844 24.0794 101.643 24.3141 101.379 24.5146C101.115 24.7106 100.798 24.8633 100.429 24.9727C100.064 25.082 99.654 25.1367 99.1982 25.1367C98.5283 25.1367 97.9609 25.0182 97.4961 24.7812C97.0312 24.5397 96.6781 24.2321 96.4365 23.8584C96.1995 23.4801 96.0811 23.0882 96.0811 22.6826H97.6738C97.6921 22.988 97.7764 23.2318 97.9268 23.4141C98.0817 23.5918 98.2731 23.7217 98.501 23.8037C98.7334 23.8812 98.9727 23.9199 99.2188 23.9199C99.515 23.9199 99.7633 23.8812 99.9639 23.8037C100.164 23.7217 100.317 23.6123 100.422 23.4756C100.527 23.3343 100.579 23.1748 100.579 22.9971Z" fill="white"/>
</g>
<defs>
<clipPath id="clip0_20_233">
<rect width="127" height="40" rx="20" fill="white"/>
</clipPath>
</defs>
</svg>
