<svg width="44" height="44" viewBox="0 0 44 44" fill="none" xmlns="http://www.w3.org/2000/svg">
<path d="M0.5 22C0.5 10.1259 10.1259 0.5 22 0.5C33.8741 0.5 43.5 10.1259 43.5 22C43.5 33.8741 33.8741 43.5 22 43.5C10.1259 43.5 0.5 33.8741 0.5 22Z" fill="#2C2C2C"/>
<path d="M0.5 22C0.5 10.1259 10.1259 0.5 22 0.5C33.8741 0.5 43.5 10.1259 43.5 22C43.5 33.8741 33.8741 43.5 22 43.5C10.1259 43.5 0.5 33.8741 0.5 22Z" stroke="#2C2C2C" stroke-linecap="round"/>
<path d="M19.5 30.3333V22H24.5V30.3333M14.5 19.5L22 13.6667L29.5 19.5V28.6667C29.5 29.1087 29.3244 29.5326 29.0118 29.8452C28.6993 30.1577 28.2754 30.3333 27.8333 30.3333H16.1667C15.7246 30.3333 15.3007 30.1577 14.9882 29.8452C14.6756 29.5326 14.5 29.1087 14.5 28.6667V19.5Z" stroke="#F5F5F5" stroke-width="2" stroke-linecap="round" stroke-linejoin="round"/>
</svg>
